# xmcd
#
# Track frame offsets: 
#        150
#        19448
#        42313
#        79310
#        98600
#
# Disc length: 1570 seconds
#
# Revision: 4
# Processed by: cddbd v1.5.2PL0 Copyright (c) Steve Scherf et al.
# Submitted via: ExactAudioCopy v0.99pb3
#
DISCID=37062005
DTITLE=Snoop Doggy Dogg - What's My Name?
DYEAR=1993
DGENRE=Rap
TTITLE0=What's My Name? (Clean Radio Mix)
TTITLE1=What's My Name? (Clean Club Mix)
TTITLE2=What's My Name? (Explicit Club Mix)
TTITLE3=What's My Name? (LP Version)
TTITLE4=What's My Name? (Instrumental)
EXTD=
EXTT0=
EXTT1=
EXTT2=
EXTT3=
EXTT4=
PLAYORDER=
